<?xml version="1.0" encoding="UTF-8" standalone="no"?>
<!-- Created with Inkscape (http://www.inkscape.org/) -->

<svg
   width="132.29167mm"
   height="132.29167mm"
   viewBox="0 0 132.29167 132.29167"
   version="1.1"
   id="svg1"
   inkscape:export-filename="reportlogo.svg"
   inkscape:export-xdpi="96"
   inkscape:export-ydpi="96"
   xmlns:inkscape="http://www.inkscape.org/namespaces/inkscape"
   xmlns:sodipodi="http://sodipodi.sourceforge.net/DTD/sodipodi-0.dtd"
   xmlns="http://www.w3.org/2000/svg"
   xmlns:svg="http://www.w3.org/2000/svg">
  <sodipodi:namedview
     id="namedview1"
     pagecolor="#ffffff"
     bordercolor="#000000"
     borderopacity="0.25"
     inkscape:showpageshadow="2"
     inkscape:pageopacity="0.0"
     inkscape:pagecheckerboard="0"
     inkscape:deskcolor="#d1d1d1"
     inkscape:document-units="mm" />
  <defs
     id="defs1" />
  <g
     inkscape:label="Layer 1"
     inkscape:groupmode="layer"
     id="layer1"
     transform="translate(-1.3911494,-40.226536)">
    <rect
       style="fill:none;stroke-width:0.0700041"
       id="rect1"
       width="132.29167"
       height="132.29167"
       x="1.3911494"
       y="40.226536" />
    <g
       id="SVGRepo_iconCarrier"
       transform="matrix(0.25408998,0,0,0.25838216,2.4899504,40.226539)"
       style="fill:#01579b;fill-opacity:1"> <path
   d="M 310.015,430.842 H 201.753 c -6.808,0 -12.336,-5.52 -12.336,-12.336 0,-6.816 5.52,-12.336 12.336,-12.336 v 0 h 108.262 c 6.808,0 12.336,5.52 12.336,12.336 0,6.816 -5.528,12.336 -12.336,12.336 z"
   id="path1"
   style="fill:#3a393c;fill-opacity:1" />
 <path
   d="M 310.015,466.225 H 201.753 c -6.808,0 -12.336,-5.52 -12.336,-12.336 0,-6.816 5.52,-12.336 12.336,-12.336 v 0 h 108.262 c 6.808,0 12.336,5.52 12.336,12.336 0,6.816 -5.528,12.336 -12.336,12.336 z"
   id="path2"
   style="fill:#3a393c;fill-opacity:1" />
 <g
   id="g9"
   style="fill:#01579b;fill-opacity:1"> <path
   style="fill:#3a393c;fill-opacity:1"
   d="m 196.073,481.081 c 8.304,17.951 31.928,30.919 59.808,30.919 27.88,0 51.503,-12.968 59.808,-30.919 z"
   id="path3" />
 <circle
   style="fill:#01579b;fill-opacity:1"
   cx="255.77699"
   cy="102.383"
   id="ellipse3"
   r="0.024" />
 <path
   style="fill:#3a393c;fill-opacity:1"
   d="m 255.904,102.319 v 0 c -105.799,0.088 -158.902,107.726 -110.303,180.573 46.175,69.151 42.4,108.31 42.4,108.31 h 135.806 c 0,0 -3.815,-39.199 42.343,-108.342 48.616,-72.815 -4.487,-180.453 -110.246,-180.541 z"
   id="path4" />
 <circle
   style="fill:#01579b;fill-opacity:1"
   cx="255.88699"
   cy="102.35101"
   id="ellipse4"
   r="0.056000002" />
 <path
   style="fill:#01579b;fill-opacity:1"
   d="m 256.001,82.214 c -6.808,0 -12.328,-5.52 -12.328,-12.328 v 0 -57.551 C 243.673,5.528 249.193,0 256.009,0 c 6.808,0 12.336,5.52 12.336,12.336 v 57.543 c 0.008,6.808 -5.512,12.328 -12.32,12.336 -0.017,-0.001 -0.017,-0.001 -0.024,-0.001 z"
   id="path5" />
 <path
   style="fill:#01579b;fill-opacity:1"
   d="M 91.587,271.284 H 34.044 c -6.808,0 -12.336,-5.52 -12.336,-12.336 0,-6.808 5.52,-12.336 12.336,-12.336 h 57.543 c 6.808,0 12.336,5.52 12.336,12.336 0,6.816 -5.528,12.336 -12.336,12.336 z"
   id="path6" />
 <path
   style="fill:#01579b;fill-opacity:1"
   d="m 477.956,271.284 h -57.543 c -6.808,0 -12.336,-5.52 -12.336,-12.336 0,-6.808 5.52,-12.336 12.336,-12.336 h 57.543 c 6.808,0 12.336,5.52 12.336,12.336 -0.007,6.816 -5.527,12.336 -12.336,12.336 z"
   id="path7" />
 <path
   style="fill:#01579b;fill-opacity:1"
   d="m 98.432056,180.27913 c -3.152009,0.95931 -6.491269,0.63028 -9.288214,-0.92679 L 39.955054,152.0777 c -5.82207,-3.22739 -7.739509,-10.74905 -4.282804,-16.80044 3.456704,-6.05138 10.978369,-8.34059 16.800439,-5.1132 l 49.186581,27.26597 c 5.82207,3.22739 7.73754,10.74135 4.28854,16.79038 -1.65944,2.90507 -4.36792,5.08303 -7.519934,6.04234 2.5e-4,9.7e-4 0.004,0.0164 0.004,0.0164 z"
   id="path8" />
 <path
   style="fill:#01579b;fill-opacity:1"
   d="m 361.79639,102.32793 c -6.77196,0.76439 -12.7811,-4.098665 -13.42931,-10.869735 -0.30771,-3.25468 0.68576,-6.527548 2.77605,-9.087793 l 36.6453,-45.039852 c 4.33759,-5.331234 12.10426,-6.207895 17.34768,-1.958116 5.24342,4.249779 5.97771,12.016448 1.64011,17.347682 l -36.66346,45.017779 c -2.07363,2.566405 -5.06144,4.214595 -8.31637,4.590035 z"
   id="path9" />
 <path
   style="fill:#01579b;fill-opacity:1"
   d="m 408.7819,180.13631 c -6.48704,-2.25712 -10.21614,-9.33936 -8.3332,-15.82904 0.90862,-3.11775 3.0166,-5.68385 5.86925,-7.11768 l 50.06745,-25.27947 c 5.92633,-2.99225 13.36623,-0.40359 16.61779,5.78205 3.25156,6.18565 1.08331,13.62554 -4.84302,16.61779 l -50.07603,25.2513 c -2.83963,1.44676 -6.18133,1.65256 -9.30224,0.57505 z"
   id="path19" />
<path
   style="fill:#01579b;fill-opacity:1"
   d="m 157.80135,102.36622 c -3.25915,-0.31654 -6.27782,-1.91084 -8.39274,-4.445409 l -37.2295,-44.4724 c -4.40684,-5.263006 -3.77413,-13.04034 1.41321,-17.371506 5.18733,-4.331165 12.96467,-3.575787 17.3715,1.687219 l 37.23023,44.463435 c 4.40683,5.263006 3.77478,13.032372 -1.40459,17.364311 -2.49027,2.07925 -5.72759,3.07397 -8.98674,2.75742 -8e-5,0.001 -0.001,0.0169 -0.001,0.0169 z"
   id="path20" />
</g>
 </g>
  </g>
  <g
     inkscape:groupmode="layer"
     id="layer4"
     inkscape:label="Layer 4"
     sodipodi:insensitive="true">
    <g
       id="g21"
       transform="matrix(0.88206301,0,0,0.95365732,7.8010411,3.0653789)">
      <path
         style="-inkscape-font-specification:'Ubuntu Bold';display:inline;fill:#01579b;stroke-width:6.68977"
         d="M 64.45151,63.244861 57.949024,74.885114 C 54.309773,69.212163 50.831076,63.539213 47.512935,57.866262 44.248313,52.193311 41.090727,46.359805 38.040178,40.365744 h 14.530246 c 1.712589,3.853325 3.558974,7.679891 5.539155,11.479697 1.980181,3.799807 4.094158,7.599613 6.341931,11.39942 z"
         id="text4"
         inkscape:label="text4"
         transform="scale(1.030782,0.97013723)"
         aria-label="Y"
         sodipodi:nodetypes="cccccsc" />
      <path
         style="-inkscape-font-specification:'Ubuntu Bold';display:inline;fill:#ffffff;stroke-width:6.68977"
         d="m 64.45151,63.244861 c 2.247773,-3.799807 4.388509,-7.599613 6.422208,-11.39942 2.033699,-3.799806 3.906843,-7.626372 5.619432,-11.479697 h 13.807748 c -3.050549,5.994061 -6.208135,11.800808 -9.472757,17.42024 -3.264623,5.619432 -6.71656,11.265623 -10.355811,16.938574 z"
         id="text20"
         transform="scale(1.030782,0.97013723)"
         aria-label="Y"
         sodipodi:nodetypes="csccscc" />
      <path
         style="-inkscape-font-specification:'Ubuntu Bold';display:inline;fill:#eaf1ff;stroke-width:6.68977"
         d="m 64.45151,63.244861 6.02082,11.479697 V 95.998123 H 57.949024 V 74.885114 Z"
         id="text21"
         transform="scale(1.030782,0.97013723)"
         aria-label="Y"
         sodipodi:nodetypes="cccccc" />
    </g>
  </g>
</svg>
